M48
; DRILL file {KiCad (5.99.0-11667-g1edb96cc5b)} date Sat Oct 30 09:42:57 2021
; FORMAT={-:-/ absolute / metric / decimal}
; #@! TF.CreationDate,2021-10-30T09:42:57+02:00
; #@! TF.GenerationSoftware,Kicad,Pcbnew,(5.99.0-11667-g1edb96cc5b)
; #@! TF.FileFunction,Plated,1,2,PTH
FMAT,2
METRIC
; #@! TA.AperFunction,Plated,PTH,ComponentDrill
T1C1.000
; #@! TA.AperFunction,Plated,PTH,ComponentDrill
T2C3.200
%
G90
G05
T1
X111.752Y-113.04
X111.752Y-115.58
X111.752Y-118.12
X111.752Y-120.66
X111.752Y-123.2
X111.752Y-125.74
X111.752Y-128.28
X111.752Y-130.82
X114.292Y-113.04
X114.292Y-115.58
X114.292Y-118.12
X114.292Y-120.66
X114.292Y-123.2
X114.292Y-125.74
X114.292Y-128.28
X114.292Y-130.82
X124.14Y-117.6
X124.14Y-119.89
X124.14Y-122.18
X124.14Y-124.47
X124.14Y-126.76
X126.12Y-116.455
X126.12Y-118.745
X126.12Y-121.035
X126.12Y-123.325
X126.12Y-125.615
X128.1Y-117.6
X128.1Y-119.89
X128.1Y-122.18
X128.1Y-124.47
X128.1Y-126.76
T2
X126.19Y-109.415
X126.19Y-134.415
T0
M30
